<svg width="566" height="235" viewBox="0 0 566 235" fill="none" xmlns="http://www.w3.org/2000/svg">
<path d="M224.552 74.9078C230.052 71.5987 235.876 69.9209 242.024 69.9209V104.829H232.641C225.384 104.829 219.93 106.227 216.325 109.07C212.719 111.914 210.871 116.807 210.871 123.798V163.973H178.377V70.7598H210.871V88.1907C214.476 82.6445 219.052 78.2169 224.552 74.9078Z" fill="black"/>
<path d="M303.912 73.836C308.673 76.679 312.232 80.5474 314.543 85.5343V70.76H346.852V163.973H314.543V149.199C312.232 154.186 308.673 158.101 303.912 160.897C299.152 163.74 293.513 165.138 286.995 165.138C279.646 165.138 272.99 163.228 267.074 159.406C261.158 155.584 256.489 150.038 253.069 142.767C249.649 135.497 247.938 127.014 247.938 117.273C247.938 107.533 249.649 99.0502 253.069 91.8262C256.489 84.6022 261.158 79.1026 267.074 75.2808C272.99 71.4591 279.646 69.5482 286.995 69.5482C293.466 69.5948 299.105 70.993 303.912 73.836ZM285.424 103.245C282.281 106.647 280.709 111.308 280.709 117.273C280.709 123.379 282.281 128.086 285.424 131.488C288.567 134.891 292.634 136.569 297.719 136.569C302.572 136.569 306.547 134.844 309.736 131.395C312.926 127.946 314.497 123.239 314.497 117.273C314.497 111.401 312.879 106.74 309.736 103.291C306.547 99.8426 302.526 98.1181 297.719 98.1181C292.681 98.1647 288.567 99.8426 285.424 103.245Z" fill="black"/>
<path d="M397.093 40.978V163.973H364.6V40.978H397.093Z" fill="black"/>
<path d="M447.525 40.978V163.973H415.031V40.978H447.525Z" fill="black"/>
<path d="M491.712 70.7601L511.495 122.96L529.798 70.7601H565.712L507.196 208.529H471.606L494.208 160.012L455.613 70.7601H491.712Z" fill="black"/>
<path d="M145.578 7.95562C119.166 -3.73191 93.3992 1.50411 70.6285 6.08562C49.8399 10.2931 31.9091 13.9396 14.6237 6.31937L1.99377 35.8654C28.3598 47.553 54.1728 42.3169 76.8973 37.6887C91.6015 34.6967 104.923 32.0319 117.507 33.3877C113.358 43.5325 109.117 54.4252 104.646 66.3465C100.175 78.1743 95.5195 90.9371 90.4952 105.149C83.7654 106.131 77.1739 107.487 70.6746 108.796C55.8783 111.788 41.8655 114.639 28.7747 112.91L0.703125 109.263L12.2268 135.49L60.5799 234.6L88.7436 219.687L51.4071 144.793C60.0728 143.811 68.5542 142.082 76.8973 140.399C86.1162 138.529 94.8742 136.752 103.356 136.051L113.589 135.209L117.046 125.392C123.315 107.533 128.938 91.9656 134.285 77.847C141.245 59.3807 147.606 43.4857 153.783 29.1802L160.144 14.4071L145.578 7.95562Z" fill="black"/>
</svg>
