<svg width="577" height="241" viewBox="0 0 577 241" fill="none" xmlns="http://www.w3.org/2000/svg">
<mask id="mask0_418_46" style="mask-type:luminance" maskUnits="userSpaceOnUse" x="0" y="0" width="577" height="241">
<path d="M576.852 0.325439H0.17627V240.607H576.852V0.325439Z" fill="white"/>
</mask>
<g mask="url(#mask0_418_46)">
<path d="M70.4039 128.466C52.5283 123.579 37.0996 119.365 37.0996 102.886C37.0996 91.18 46.4826 82.3364 58.9452 82.3364C74.0322 82.3364 78.5749 92.3681 82.9547 102.07C86.5842 110.108 90.0229 117.702 99.2564 117.702C106.986 117.702 112.811 112.061 112.811 104.57C112.811 87.6372 92.048 70.114 57.3099 70.114C25.781 70.114 2.9032 87.3169 2.9032 111.027C2.9032 142.672 27.4456 149.212 49.1003 154.998C66.8344 159.719 82.1537 163.811 82.1537 180.072C82.1537 192.945 73.1712 200.622 58.1322 200.622C41.0896 200.622 36.3373 190.372 31.7359 180.454C28.0463 172.499 24.5582 164.977 14.8333 164.977C5.65015 164.977 0.17627 170.206 0.17627 178.956C0.17627 195.342 21.851 212.295 58.1322 212.295C92.4097 212.295 116.35 195.817 116.35 172.22C116.35 141.009 91.9385 134.345 70.4039 128.466Z" fill="#57349B"/>
<path d="M296.966 70.114C287.241 70.114 280.955 76.3747 280.955 86.0554C280.955 95.405 286.169 101.005 291.702 106.925C297.797 113.454 304.094 120.211 304.094 132.918C304.094 168.408 281.566 196.964 262.92 196.964C258.679 196.964 255.23 195.6 252.664 192.914C248.604 188.657 246.629 181.125 246.789 170.536L247.33 77.9138C247.33 75.1359 246.528 73.0481 244.965 71.7052C243.14 70.1447 240.413 69.7109 236.834 70.4144L210.166 76.0236C206.668 76.6844 204.422 79.0712 204.422 82.1294V82.9664C204.422 85.7457 206.437 87.6359 208.562 89.6409C211.469 92.3788 214.768 95.4677 214.768 101.78V140.502C214.768 175.846 197.294 196.973 180.392 196.973C176.431 196.973 173.123 195.62 170.567 192.934C166.457 188.626 164.371 181.084 164.532 171.104L165.072 77.9245C165.072 75.4349 164.441 73.6688 163.127 72.5008C161.002 70.5999 157.463 70.8269 154.616 71.2607L125.713 76.0343C122.445 76.7057 120.249 79.154 120.249 82.1294V82.9664C120.249 85.7457 122.265 87.6359 124.401 89.6409C127.308 92.3788 130.605 95.4677 130.605 101.78V158.758C130.605 207.336 161.033 212.574 174.115 212.574C193.375 212.574 209.053 204.01 219.62 187.768C225.786 203.792 238.759 212.574 256.363 212.574C290.168 212.574 324.395 179.338 324.395 115.81C324.415 87.6265 313.899 70.114 296.966 70.114Z" fill="#57349B"/>
<path d="M398.884 136.66C388.486 138.799 371.845 139.14 361.018 138.386C360.547 134.491 360.316 130.297 360.316 125.915C360.316 101.316 373.399 83.4737 391.424 83.4737C405.239 83.4737 417.129 95.3343 417.389 109.364C417.671 129.656 408.187 134.552 398.884 136.66ZM451.747 164.473C449.211 163.418 446.152 164.369 444.308 166.786L444.198 166.962C438.513 178.679 422.964 186.86 406.412 186.86C386.812 186.86 371.534 174.524 364.315 152.922C380.717 154.43 394.141 153.914 405.299 151.352C433.269 145.163 449.962 129.449 449.962 109.333C449.962 99.2816 446.644 90.7996 440.097 84.1037C431.084 74.8983 416.407 69.9085 398.813 70.0953C360.035 70.3837 331.884 99.8702 331.884 140.204C331.884 183.482 359.554 212.554 400.738 212.554C420.207 212.554 432.749 204.558 439.837 197.853C447.817 190.3 453.441 180.031 454.864 170.393L454.875 170.341C455.126 167.603 453.962 165.392 451.747 164.473Z" fill="#57349B"/>
<path d="M510.163 196.303C507.066 193.74 503.868 191.096 503.868 185.413V7.07202C503.868 4.58244 502.826 2.47463 501.011 1.29725C498.845 -0.108401 495.857 0.00640169 492.579 1.6283L465.071 15.6581C462.624 16.9182 459.867 18.3332 459.867 21.6611V22.4968C459.867 24.9557 461.632 26.6924 463.666 28.7174C466.463 31.4753 469.942 30.8239 469.942 37.4984V185.404C469.942 191.126 467.056 193.772 464.258 196.334C462.002 198.411 459.867 200.373 459.867 203.649V204.485C459.867 207.689 462.524 209.755 466.614 209.755H508.009C512.148 209.755 515.036 207.595 515.036 204.485V203.649C515.036 200.343 512.67 198.379 510.163 196.303Z" fill="#57349B"/>
<path d="M571.98 196.303C568.882 193.74 565.685 191.096 565.685 185.413V7.07202C565.685 4.58244 564.642 2.47463 562.827 1.29725C560.662 -0.108401 557.665 0.00640169 554.396 1.6283L526.886 15.6581C524.441 16.9182 521.684 18.3332 521.684 21.6611V22.4968C521.684 24.9557 523.438 26.6924 525.483 28.7174C528.28 31.4753 531.758 30.8239 531.758 37.4984V185.404C531.758 191.126 528.871 193.772 526.074 196.334C523.819 198.411 521.673 200.373 521.673 203.649V204.485C521.673 207.689 524.33 209.755 528.42 209.755H569.815C573.956 209.755 576.842 207.595 576.842 204.485V203.649C576.853 200.343 574.487 198.379 571.98 196.303Z" fill="#57349B"/>
</g>
</svg>
